<svg xmlns="http://www.w3.org/2000/svg" width="900" height="420" viewBox="0 0 900 420" font-family="system-ui, -apple-system, 'Segoe UI', sans-serif" font-size="11"><defs><clipPath id="clip1"><rect x="62" y="40" width="824" height="338"/></clipPath></defs><rect width="900" height="420" fill="#ffffff"/><rect x="62" y="40" width="824" height="338" fill="#fbfaf7"/><g><line x1="85.32" y1="40" x2="85.32" y2="378" stroke="#dedbd2" stroke-width="1"/><line x1="214.88" y1="40" x2="214.88" y2="378" stroke="#dedbd2" stroke-width="1"/><line x1="344.44" y1="40" x2="344.44" y2="378" stroke="#dedbd2" stroke-width="1"/><line x1="474" y1="40" x2="474" y2="378" stroke="#dedbd2" stroke-width="1"/><line x1="603.56" y1="40" x2="603.56" y2="378" stroke="#dedbd2" stroke-width="1"/><line x1="733.12" y1="40" x2="733.12" y2="378" stroke="#dedbd2" stroke-width="1"/><line x1="862.68" y1="40" x2="862.68" y2="378" stroke="#dedbd2" stroke-width="1"/><line x1="62" y1="353.88" x2="886" y2="353.88" stroke="#dedbd2" stroke-width="1"/><line x1="62" y1="274.84" x2="886" y2="274.84" stroke="#dedbd2" stroke-width="1"/><line x1="62" y1="195.8" x2="886" y2="195.8" stroke="#dedbd2" stroke-width="1"/><line x1="62" y1="116.77" x2="886" y2="116.77" stroke="#dedbd2" stroke-width="1"/></g><g clip-path="url(#clip1)"><path d="M 85.32 49.57 L 344.44 360.12 L 862.68 368.43" stroke="#7c3aed" stroke-width="3" fill="none"  stroke-linejoin="round" stroke-linecap="round"/><g><circle cx="85.32" cy="49.57" r="21" fill="#7c3aed" fill-opacity="0.8"/><circle cx="344.44" cy="360.12" r="21" fill="#7c3aed" fill-opacity="0.8"/><circle cx="862.68" cy="368.43" r="21" fill="#7c3aed" fill-opacity="0.8"/></g></g><line x1="62" y1="40" x2="62" y2="378" stroke="#77736a" stroke-width="1"/><line x1="62" y1="378" x2="886" y2="378" stroke="#77736a" stroke-width="1"/><line x1="85.32" y1="378" x2="85.32" y2="378" stroke="#77736a" stroke-width="1"/><line x1="214.88" y1="378" x2="214.88" y2="378" stroke="#77736a" stroke-width="1"/><line x1="344.44" y1="378" x2="344.44" y2="378" stroke="#77736a" stroke-width="1"/><line x1="474" y1="378" x2="474" y2="378" stroke="#77736a" stroke-width="1"/><line x1="603.56" y1="378" x2="603.56" y2="378" stroke="#77736a" stroke-width="1"/><line x1="733.12" y1="378" x2="733.12" y2="378" stroke="#77736a" stroke-width="1"/><line x1="862.68" y1="378" x2="862.68" y2="378" stroke="#77736a" stroke-width="1"/><line x1="62" y1="353.88" x2="62" y2="353.88" stroke="#77736a" stroke-width="1"/><line x1="62" y1="274.84" x2="62" y2="274.84" stroke="#77736a" stroke-width="1"/><line x1="62" y1="195.8" x2="62" y2="195.8" stroke="#77736a" stroke-width="1"/><line x1="62" y1="116.77" x2="62" y2="116.77" stroke="#77736a" stroke-width="1"/><g fill="#171717"><text x="85.32" y="394" fill="#171717" font-size="11" text-anchor="middle">1.0</text><text x="214.88" y="394" fill="#171717" font-size="11" text-anchor="middle">1.5</text><text x="344.44" y="394" fill="#171717" font-size="11" text-anchor="middle">2.0</text><text x="474" y="394" fill="#171717" font-size="11" text-anchor="middle">2.5</text><text x="603.56" y="394" fill="#171717" font-size="11" text-anchor="middle">3.0</text><text x="733.12" y="394" fill="#171717" font-size="11" text-anchor="middle">3.5</text><text x="862.68" y="394" fill="#171717" font-size="11" text-anchor="middle">4.0</text><text x="54" y="357.88" fill="#171717" font-size="11" text-anchor="end">100</text><text x="54" y="278.84" fill="#171717" font-size="11" text-anchor="end">120</text><text x="54" y="199.8" fill="#171717" font-size="11" text-anchor="end">140</text><text x="54" y="120.77" fill="#171717" font-size="11" text-anchor="end">160</text></g><text x="450" y="28" text-anchor="middle" font-size="14" font-weight="400" fill="#171717">Thread Scaling Wall Time (lower is better)</text><text x="474" y="411.84" text-anchor="middle" font-size="12" font-weight="400" fill="#171717">CPU threads</text><text x="25.57" y="209" text-anchor="middle" font-size="12" font-weight="400" fill="#171717" transform="rotate(-90 25.57 209)">Wall time (seconds)</text></svg>